<svg aria-hidden="true" style="position: absolute; width: 0; height: 0; overflow: hidden;" version="1.1" xmlns="http://www.w3.org/2000/svg" xmlns:xlink="http://www.w3.org/1999/xlink">
<defs>
<symbol id="icon-logo-light" viewBox="0 0 85 32">
<path fill="#fff" style="fill: var(--color1, #fff)" d="M11.933 4.686v12.543h-3.548v-4.892h-4.838v4.892h-3.548v-12.543h3.548v4.712h4.838v-4.712h3.548z"></path>
<path fill="#fff" style="fill: var(--color1, #fff)" d="M24.918 12.391c0 0.024-0.018 0.305-0.054 0.842h-7.060c0.143 0.502 0.418 0.89 0.824 1.165 0.418 0.263 0.938 0.394 1.559 0.394 0.466 0 0.866-0.066 1.2-0.197 0.346-0.131 0.693-0.346 1.039-0.645l1.792 1.863c-0.944 1.051-2.323 1.577-4.139 1.577-1.135 0-2.132-0.215-2.992-0.645s-1.529-1.027-2.007-1.792c-0.466-0.764-0.699-1.63-0.699-2.598 0-0.956 0.227-1.81 0.681-2.562 0.466-0.764 1.105-1.362 1.917-1.792s1.726-0.645 2.741-0.645c0.968 0 1.846 0.203 2.634 0.609 0.788 0.394 1.41 0.974 1.863 1.738 0.466 0.753 0.699 1.648 0.699 2.688zM19.739 9.775c-0.526 0-0.968 0.149-1.326 0.448-0.346 0.299-0.567 0.705-0.663 1.218h3.978c-0.096-0.514-0.323-0.92-0.681-1.218-0.346-0.299-0.782-0.448-1.308-0.448z"></path>
<path fill="#fff" style="fill: var(--color1, #fff)" d="M27.204 3.934h3.404v13.295h-3.404v-13.295z"></path>
<path fill="#fff" style="fill: var(--color1, #fff)" d="M33.538 3.934h3.404v13.295h-3.404v-13.295z"></path>
<path fill="#ff6b09" style="fill: var(--color2, #ff6b09)" d="M3.867 26.282v3.733h-0.864v-1.531h-1.696v1.531h-0.864v-3.733h0.864v1.472h1.696v-1.472h0.864zM8.601 29.322v0.693h-2.891v-3.733h2.821v0.693h-1.963v0.811h1.733v0.672h-1.733v0.864h2.032zM10.248 26.282h0.864v3.029h1.872v0.704h-2.736v-3.733zM14.427 26.282h0.864v3.029h1.872v0.704h-2.736v-3.733zM18.606 26.282h0.864v3.733h-0.864v-3.733zM22.542 30.080c-0.295 0-0.581-0.039-0.859-0.117-0.274-0.082-0.494-0.187-0.661-0.315l0.293-0.651c0.16 0.117 0.35 0.212 0.571 0.283s0.441 0.107 0.661 0.107c0.245 0 0.427-0.036 0.544-0.107 0.117-0.075 0.176-0.172 0.176-0.293 0-0.089-0.036-0.162-0.107-0.219-0.068-0.060-0.156-0.108-0.267-0.144-0.107-0.036-0.252-0.075-0.437-0.117-0.284-0.068-0.517-0.135-0.699-0.203s-0.338-0.176-0.469-0.325c-0.128-0.149-0.192-0.348-0.192-0.597 0-0.217 0.059-0.412 0.176-0.587 0.117-0.178 0.293-0.318 0.528-0.421 0.238-0.103 0.528-0.155 0.869-0.155 0.238 0 0.471 0.028 0.699 0.085s0.427 0.139 0.597 0.245l-0.267 0.656c-0.345-0.196-0.69-0.293-1.035-0.293-0.242 0-0.421 0.039-0.539 0.117-0.114 0.078-0.171 0.181-0.171 0.309s0.066 0.224 0.197 0.288c0.135 0.060 0.34 0.121 0.613 0.181 0.284 0.068 0.517 0.135 0.699 0.203s0.336 0.174 0.464 0.32c0.132 0.146 0.197 0.343 0.197 0.592 0 0.213-0.060 0.409-0.181 0.587-0.117 0.174-0.295 0.313-0.533 0.416s-0.528 0.155-0.869 0.155zM29.101 26.282v3.733h-0.864v-1.531h-1.696v1.531h-0.864v-3.733h0.864v1.472h1.696v-1.472h0.864z"></path>
<path fill="#fff" style="fill: var(--color1, #fff)" d="M36.305 29.322v0.693h-2.891v-3.733h2.821v0.693h-1.963v0.811h1.733v0.672h-1.733v0.864h2.032zM41.376 26.282v3.733h-0.709l-1.861-2.267v2.267h-0.853v-3.733h0.715l1.856 2.267v-2.267h0.853zM45.742 28.090h0.789v1.515c-0.203 0.153-0.437 0.27-0.704 0.352s-0.535 0.123-0.805 0.123c-0.388 0-0.736-0.082-1.045-0.245-0.309-0.167-0.553-0.396-0.731-0.688-0.174-0.295-0.261-0.628-0.261-0.997s0.087-0.7 0.261-0.992c0.178-0.295 0.423-0.524 0.736-0.688 0.313-0.167 0.665-0.251 1.056-0.251 0.327 0 0.624 0.055 0.891 0.165s0.491 0.27 0.672 0.48l-0.555 0.512c-0.267-0.281-0.588-0.421-0.965-0.421-0.238 0-0.45 0.050-0.635 0.149s-0.329 0.24-0.432 0.421-0.155 0.389-0.155 0.624c0 0.231 0.052 0.437 0.155 0.619s0.245 0.324 0.427 0.427c0.185 0.1 0.395 0.149 0.629 0.149 0.249 0 0.473-0.053 0.672-0.16v-1.093zM48.294 26.282h0.864v3.029h1.872v0.704h-2.736v-3.733zM52.473 26.282h0.864v3.733h-0.864v-3.733zM56.41 30.080c-0.295 0-0.581-0.039-0.859-0.117-0.274-0.082-0.494-0.187-0.661-0.315l0.293-0.651c0.16 0.117 0.35 0.212 0.571 0.283s0.441 0.107 0.661 0.107c0.245 0 0.427-0.036 0.544-0.107 0.117-0.075 0.176-0.172 0.176-0.293 0-0.089-0.036-0.162-0.107-0.219-0.068-0.060-0.156-0.108-0.267-0.144-0.107-0.036-0.252-0.075-0.437-0.117-0.284-0.068-0.517-0.135-0.699-0.203s-0.338-0.176-0.469-0.325c-0.128-0.149-0.192-0.348-0.192-0.597 0-0.217 0.059-0.412 0.176-0.587 0.117-0.178 0.293-0.318 0.528-0.421 0.238-0.103 0.528-0.155 0.869-0.155 0.238 0 0.471 0.028 0.699 0.085s0.427 0.139 0.597 0.245l-0.267 0.656c-0.345-0.196-0.69-0.293-1.035-0.293-0.242 0-0.421 0.039-0.539 0.117-0.114 0.078-0.171 0.181-0.171 0.309s0.066 0.224 0.197 0.288c0.135 0.060 0.34 0.121 0.613 0.181 0.284 0.068 0.517 0.135 0.699 0.203s0.336 0.174 0.464 0.32c0.132 0.146 0.197 0.343 0.197 0.592 0 0.213-0.060 0.409-0.181 0.587-0.117 0.174-0.295 0.313-0.533 0.416s-0.528 0.155-0.869 0.155zM62.968 26.282v3.733h-0.864v-1.531h-1.696v1.531h-0.864v-3.733h0.864v1.472h1.696v-1.472h0.864z"></path>
<path fill="#fff" style="fill: var(--color1, #fff)" d="M70.715 14.487v2.741h-10.070v-12.542h9.837v2.741h-6.325v2.114h5.572v2.652h-5.572v2.293h6.558z"></path>
<path fill="#fff" style="fill: var(--color1, #fff)" d="M85.333 4.686v12.542h-2.921l-5.537-6.683v6.683h-3.476v-12.542h2.921l5.537 6.683v-6.683h3.476z"></path>
<path fill="#ff6b09" style="fill: var(--color2, #ff6b09)" d="M55.628 10.72c-0.183-0.41-0.436-0.814-0.805-1.281-0.932-1.172-1.216-3.784-1.219-3.809-0.013-0.125-0.101-0.229-0.218-0.266-0.12-0.038-0.25-0.003-0.335 0.091-1.112 1.244-0.644 3.164-0.392 3.931 0.069 0.21 0.145 0.457 0.199 0.708 0.411 2.027-0.382 2.945-0.569 3.129-0.18 0.050-0.303 0.025-0.417-0.097-0.392-0.429-0.521-1.836-0.338-3.668 0.038-0.373 0.028-0.708-0.025-1.021-0.386-2.252-1.803-3.697-2.164-4.204-0.992-1.466-1.093-3.906-1.096-3.928-0.003-0.116-0.070-0.219-0.174-0.269-0.101-0.050-0.224-0.044-0.319 0.022-1.655 1.125-1.513 3.834-1.282 5.347 0.054 0.351 0.158 0.708 0.338 1.159 0.641 1.613-0.126 3.696-0.133 3.715s-0.013 0.034-0.016 0.053c-0.098 0.514-0.262 0.821-0.445 0.821-0.019 0-0.038-0.003-0.060-0.009-0.224-0.047-0.341-0.285-0.344-0.492-0.013-2.672-2.694-3.571-2.723-3.58-0.12-0.038-0.253-0.003-0.335 0.094-0.085 0.097-0.101 0.232-0.044 0.345 0.032 0.066 0.133 0.354 0.063 1.372-0.060 0.915-0.227 1.82-0.496 2.688-0.638 2.080-0.537 4.050-0.531 4.144 0.491 5.335 8.163 6.27 12.716 3.264 0.499-0.329 0.906-0.705 1.206-1.118 1.68-2.318 0.692-5.466-0.044-7.139zM43.957 15.817c0.009 0.172-0.123 0.32-0.297 0.329h-0.019c-0.167 0-0.306-0.128-0.316-0.294-0.028-0.457-0.022-0.937 0.013-1.457 0.013-0.172 0.164-0.301 0.338-0.291 0.174 0.013 0.306 0.163 0.294 0.335-0.035 0.495-0.041 0.946-0.013 1.378zM44.112 13.041c-0.019 0.16-0.155 0.276-0.313 0.276-0.013 0-0.025 0-0.041-0.003-0.171-0.022-0.294-0.175-0.275-0.348l0.152-1.209c0.022-0.169 0.177-0.291 0.354-0.273 0.174 0.022 0.297 0.179 0.275 0.351l-0.152 1.206z"></path>
<path fill="#ff6b09" style="fill: var(--color2, #ff6b09)" d="M53.492 4.285c-0.172-0.026-0.29-0.186-0.264-0.357 0.020-0.127 0.134-0.779 0.444-1.106 0.119-0.126 0.319-0.133 0.447-0.014s0.134 0.316 0.014 0.443c-0.131 0.139-0.243 0.536-0.28 0.773-0.027 0.169-0.186 0.288-0.361 0.261z"></path>
<path fill="#ff6b09" style="fill: var(--color2, #ff6b09)" d="M41.976 5.846c-0.060-0.233-0.211-0.617-0.355-0.743-0.131-0.114-0.144-0.312-0.029-0.442s0.314-0.144 0.446-0.029c0.34 0.296 0.518 0.933 0.55 1.058 0.043 0.168-0.059 0.338-0.227 0.381-0.172 0.043-0.342-0.061-0.385-0.225z"></path>
</symbol>
</defs>
</svg>
